<svg xmlns="http://www.w3.org/2000/svg" viewBox="0 0 24 24">
  <g fill="none" fill-rule="evenodd">
    <rect width="24" height="24"/>
    <path fill="currentColor" d="M20.2998,20.0996 C20.4998,19.9006 20.7998,19.9996 21.1998,20.2006 C21.4008,20.4006 21.2998,20.7006 21.0998,20.9006 C20.9998,20.9996 20.9008,20.9996 20.7998,21.0996 C19.9008,21.7006 18.9008,21.9996 17.9008,21.9996 C16.7998,21.9996 15.9008,21.7006 14.9998,21.0996 C13.1998,22.2996 10.9008,22.2996 9.1998,21.0996 C7.4008,22.2996 5.0998,22.2996 3.4008,21.0996 C3.2998,21.0996 3.1998,20.9996 3.0998,20.9006 C2.9008,20.7006 2.7998,20.4006 2.9998,20.2006 C3.1998,19.9996 3.4998,19.9006 3.7998,20.0996 C3.7998,20.2006 3.9008,20.2006 3.9998,20.2996 C5.2998,21.2006 7.1998,21.2006 8.5998,20.2996 C8.5998,20.2006 8.6998,20.2006 8.7998,20.0996 C8.9998,19.9996 9.2998,19.9996 9.6998,20.0996 C9.6998,20.2006 9.7998,20.2006 9.9008,20.2996 C11.1998,21.2006 13.0998,21.2006 14.4998,20.2996 C14.4998,20.2006 14.5998,20.2006 14.6998,20.0996 C14.9008,19.9996 15.0998,19.9996 15.2998,20.0996 C15.2998,20.2006 15.4008,20.2006 15.4998,20.2996 C16.7998,21.2006 18.6998,21.2006 20.0998,20.2996 C20.0998,20.2006 20.1998,20.2006 20.2998,20.0996 Z M20.5,12 L21.4,12 L16.829,6.797 L15.465,7.858 L17.018,8.894 C17.153,8.984 17.236,9.136 17.24,9.299 C17.243,9.463 17.167,9.617 17.034,9.714 L9.225,15.394 C9.137,15.458 9.033,15.489 8.931,15.489 C8.801,15.489 8.672,15.438 8.574,15.34 C8.4,15.164 8.382,14.887 8.53,14.689 L12.474,9.433 L10.783,8.306 C10.658,8.223 10.578,8.088 10.562,7.939 C10.548,7.79 10.601,7.643 10.707,7.536 L14.312,3.932 L12,1.3 L7.9,5.8 C7.7,6 7.5,6 7.3,6 C7.1,5.9 7,5.7 7,5.5 L7,4 L5,4 L5,8.5 C5,8.6 5,8.7 4.9,8.8 L2.5,12 L3.5,12 C3.8,12 4,12.2 4,12.5 L4,17.3 C5.4,18.2 7.2,18.2 8.6,17.3 C8.6,17.2 8.7,17.2 8.8,17.1 C9,17 9.3,17 9.6,17.1 C9.6,17.2 9.7,17.2 9.8,17.3 C11.1,18.2 13,18.2 14.4,17.3 C14.4,17.2 14.5,17.2 14.6,17.1 C14.8,17 15,17 15.2,17.1 C15.2,17.2 15.3,17.2 15.4,17.3 C16.8,18.2 18.6,18.2 20,17.3 L20,12.5 C20,12.2 20.2,12 20.5,12 Z M23.326,18 C23.625,18 24.025,18.2 24.025,18.5 C24.025,18.8 23.826,19 23.525,19 C22.426,19 21.7,18.7 20.8,18.1 C19,19.3 16.7,19.3 15,18.1 C13.2,19.3 10.9,19.3 9.2,18.1 C7.4,19.3 5.1,19.3 3.4,18.1 C2.5,18.7 1.5,19 0.5,19 C0.2,19 -1.81188398e-13,18.8 -1.81188398e-13,18.5 C-1.81188398e-13,18.2 0.2,18 0.5,18 C1.3,18 2.1,17.8 2.8,17.3 C2.9,17.3 2.9,17.2 3,17.2 L3,13 L1.5,13 C1.3,13 1.2,12.8 1.1,12.7 C1,12.6 1,12.4 1.1,12.2 L4,8.3 L4,3.5 C4,3.2 4.2,3 4.5,3 L7.5,3 C7.8,3 8,3.2 8,3.5 L8,4.2 L11.6,0.2 C11.7,0.1 11.9,0 12,0 C12.1,0 12.3,0.1 12.4,0.2 L15.033,3.21 L17.097,1.146 C17.292,0.951 17.608,0.951 17.804,1.146 C17.999,1.342 17.999,1.658 17.804,1.854 L11.846,7.813 L13.468,8.894 C13.582,8.97 13.66,9.09 13.684,9.225 C13.706,9.361 13.673,9.5 13.591,9.609 L11.326,12.629 L15.865,9.328 L14.333,8.306 C14.199,8.217 14.116,8.068 14.11,7.908 C14.104,7.747 14.177,7.594 14.304,7.495 L20.693,2.525 C20.909,2.354 21.225,2.395 21.395,2.613 C21.564,2.831 21.525,3.145 21.307,3.314 L17.629,6.176 L22.9,12.2 C23.1,12.3 23.1,12.5 23,12.7 C22.9,12.9 22.7,13 22.5,13 L21,13 L21,17.2 C21.1,17.2 21.1,17.3 21.2,17.3 C21.9,17.8 22.525,18 23.326,18 Z"/>
  </g>
</svg>
