<svg xmlns="http://www.w3.org/2000/svg" viewBox="0 0 24 24">
  <g fill="none" fill-rule="evenodd">
    <rect width="24" height="24"/>
    <path fill="currentColor" d="M1.5,22 C0.673,22 2.84217094e-14,21.327 2.84217094e-14,20.5 L2.84217094e-14,8.5 C2.84217094e-14,7.673 0.673,7 1.5,7 L22.5,7 C23.327,7 24,7.673 24,8.5 L24,20.5 C24,21.327 23.327,22 22.5,22 L1.5,22 Z M22.5,21 C22.776,21 23,20.776 23,20.5 L23,17.207 L19.207,21 L22.5,21 Z M17.793,21 L23,15.793 L23,13.207 L17.793,8 L6.207,8 L1,13.207 L1,15.793 L6.207,21 L17.793,21 Z M1,20.5 C1,20.776 1.224,21 1.5,21 L4.793,21 L1,17.207 L1,20.5 Z M23,11.793 L23,8.5 C23,8.224 22.776,8 22.5,8 L19.207,8 L23,11.793 Z M1.5,8 C1.224,8 1,8.224 1,8.5 L1,11.793 L4.793,8 L1.5,8 Z M21.496,6 C21.22,6 20.996,5.776 20.996,5.5 C20.996,5.224 20.772,5 20.496,5 L3.496,5 C3.22,5 2.996,5.224 2.996,5.5 C2.996,5.776 2.772,6 2.496,6 C2.22,6 1.996,5.776 1.996,5.5 C1.996,4.673 2.669,4 3.496,4 L20.496,4 C21.323,4 21.996,4.673 21.996,5.5 C21.996,5.776 21.772,6 21.496,6 Z M19.496,3 C19.22,3 18.996,2.776 18.996,2.5 C18.996,2.224 18.772,2 18.496,2 L5.496,2 C5.22,2 4.996,2.224 4.996,2.5 C4.996,2.776 4.772,3 4.496,3 C4.22,3 3.996,2.776 3.996,2.5 C3.996,1.673 4.669,1 5.496,1 L18.496,1 C19.323,1 19.996,1.673 19.996,2.5 C19.996,2.776 19.772,3 19.496,3 Z M12,18.5 C9.794,18.5 8,16.706 8,14.5 C8,12.294 9.794,10.5 12,10.5 C14.206,10.5 16,12.294 16,14.5 C16,16.706 14.205,18.5 12,18.5 Z M12,11.5 C10.346,11.5 9,12.846 9,14.5 C9,16.154 10.346,17.5 12,17.5 C13.654,17.5 15,16.154 15,14.5 C15,12.846 13.654,11.5 12,11.5 Z M4.5,15 C4.224,15 4,14.776 4,14.5 C4,14.224 4.224,14 4.5,14 L5.5,14 C5.776,14 6,14.224 6,14.5 C6,14.776 5.776,15 5.5,15 L4.5,15 Z M18.5,15 C18.224,15 18,14.776 18,14.5 C18,14.224 18.224,14 18.5,14 L19.5,14 C19.776,14 20,14.224 20,14.5 C20,14.776 19.776,15 19.5,15 L18.5,15 Z"/>
  </g>
</svg>
