<svg xmlns="http://www.w3.org/2000/svg" viewBox="0 0 24 24">
  <g fill="none" fill-rule="evenodd">
    <rect width="24" height="24"/>
    <path fill="currentColor" d="M21.3986,12 L20.5006,12 C20.2236,12 20.0006,12.224 20.0006,12.5 L20.0006,22 L4.0006,22 L4.0006,12.5 C4.0006,12.224 3.7766,12 3.5006,12 L2.5006,12 L4.9006,8.8 C4.9646,8.714 5.0006,8.608 5.0006,8.5 L5.0006,4 L7.0006,4 L7.0006,5.5 C7.0006,5.707 7.1276,5.893 7.3216,5.967 C7.5126,6.04 7.7336,5.989 7.8726,5.834 L11.9956,1.253 L14.3496,3.943 L9.1466,9.146 C9.0406,9.252 8.9876,9.4 9.0026,9.549 C9.0176,9.698 9.0976,9.833 9.2226,9.916 L11.7836,11.623 L6.0996,19.2 C5.9516,19.397 5.9696,19.675 6.1436,19.851 C6.2416,19.949 6.3706,20 6.5006,20 C6.6026,20 6.7066,19.969 6.7946,19.904 L17.7946,11.904 C17.9266,11.809 18.0026,11.653 18.0006,11.49 C17.9966,11.326 17.9136,11.175 17.7776,11.084 L15.3546,9.469 L17.6326,7.697 L21.3986,12 Z M23.8946,2.193 C23.7236,1.975 23.4096,1.936 23.1936,2.105 L14.1936,9.105 C14.0666,9.204 13.9946,9.357 14.0006,9.519 C14.0056,9.679 14.0886,9.827 14.2226,9.916 L16.6256,11.518 L8.8956,17.14 L12.9006,11.8 C12.9826,11.69 13.0156,11.551 12.9936,11.416 C12.9696,11.28 12.8916,11.16 12.7776,11.084 L10.2856,9.422 L18.8536,0.854 C19.0486,0.658 19.0486,0.342 18.8536,0.146 C18.6586,-0.049 18.3416,-0.049 18.1466,0.146 L15.0576,3.235 L12.3766,0.171 C12.2826,0.063 12.1466,0.001 12.0036,1.08420217e-19 L12.0006,1.08420217e-19 C11.8586,1.08420217e-19 11.7236,0.06 11.6276,0.166 L8.0006,4.197 L8.0006,3.5 C8.0006,3.224 7.7766,3 7.5006,3 L4.5006,3 C4.2236,3 4.0006,3.224 4.0006,3.5 L4.0006,8.333 L1.0996,12.2 C0.9866,12.352 0.9676,12.555 1.0526,12.724 C1.1376,12.893 1.3106,13 1.5006,13 L3.0006,13 L3.0006,22.5 C3.0006,22.776 3.2236,23 3.5006,23 L20.5006,23 C20.7766,23 21.0006,22.776 21.0006,22.5 L21.0006,13 L22.5006,13 C22.6966,13 22.8746,12.886 22.9556,12.707 C23.0366,12.528 23.0056,12.318 22.8766,12.171 L18.4226,7.082 L23.8066,2.895 C24.0256,2.725 24.0646,2.411 23.8946,2.193 L23.8946,2.193 Z"/>
  </g>
</svg>
