<svg xmlns="http://www.w3.org/2000/svg" viewBox="0 0 24 24">
  <g fill="none" fill-rule="evenodd">
    <rect width="24" height="24"/>
    <path fill="currentColor" d="M17.75,19.249 C15.131,19.249 13,17.118 13,14.499 C12.998,13.945 12.549,13.499 12.001,13.499 C11.45,13.499 11.001,13.947 11.001,14.499 C11.001,14.508 11,14.518 10.999,14.528 C10.991,17.126 8.862,19.249 6.25,19.249 C3.812,19.249 1.784,17.401 1.532,14.999 L0.5,14.999 C0.224,14.999 0,14.775 0,14.499 C0,14.223 0.224,13.999 0.5,13.999 L1.532,13.999 C1.784,11.597 3.812,9.749 6.25,9.749 C6.647,9.749 7.049,9.802 7.446,9.906 L10.996,7.869 L6.228,5.134 C6.076,5.046 5.904,5 5.73,5 C5.373,5 5.04,5.191 4.862,5.499 C4.773,5.653 4.607,5.749 4.429,5.749 C4.342,5.749 4.255,5.726 4.179,5.682 C3.94,5.544 3.858,5.238 3.996,4.999 C4.352,4.383 5.017,4 5.731,4 C6.08,4 6.424,4.092 6.727,4.267 L12,7.293 L17.275,4.267 C17.577,4.093 17.921,4.001 18.269,4.001 C18.983,4.001 19.647,4.384 20.004,4.999 C20.142,5.237 20.06,5.544 19.822,5.682 C19.745,5.726 19.659,5.749 19.571,5.749 C19.393,5.749 19.227,5.653 19.138,5.499 C18.96,5.192 18.627,5 18.27,5 C18.096,5 17.925,5.046 17.773,5.133 L13.004,7.869 L16.554,9.906 C16.951,9.802 17.353,9.749 17.75,9.749 C20.188,9.749 22.216,11.597 22.468,13.999 L23.5,13.999 C23.776,13.999 24,14.223 24,14.499 C24,14.775 23.776,14.999 23.5,14.999 L22.468,14.999 C22.216,17.401 20.188,19.249 17.75,19.249 Z M14,14.503 C14.002,16.568 15.684,18.249 17.75,18.249 C19.818,18.249 21.5,16.567 21.5,14.499 C21.5,12.431 19.818,10.749 17.75,10.749 C15.688,10.749 14.006,12.427 14,14.49 C14.001,14.494 14.001,14.499 14,14.503 L14,14.503 Z M6.25,10.749 C4.182,10.749 2.5,12.431 2.5,14.499 C2.5,16.567 4.182,18.249 6.25,18.249 C8.318,18.249 10,16.567 10,14.499 C10,12.431 8.318,10.749 6.25,10.749 Z M8.617,10.387 C9.603,10.958 10.362,11.877 10.736,12.953 C11.09,12.661 11.533,12.5 12.001,12.5 C12.469,12.5 12.911,12.661 13.265,12.952 C13.639,11.878 14.398,10.959 15.383,10.388 L12,8.447 L8.617,10.387 Z"/>
  </g>
</svg>
