<svg xmlns="http://www.w3.org/2000/svg" viewBox="0 0 24 24">
  <g fill="none" fill-rule="evenodd">
    <rect width="24" height="24"/>
    <path fill="currentColor" d="M11.377493,24 C11.171493,24 10.969493,23.961 10.776493,23.884 L6.50149298,22.044 L2.23849298,23.879 C2.03749298,23.96 1.83249298,23.999 1.62249298,23.999 C1.38049298,23.999 1.13749298,23.944 0.920492982,23.839 C0.529492982,23.651 0.236492982,23.322 0.0924929816,22.914 C-0.0515070184,22.506 -0.0265070184,22.065 0.161492982,21.674 L5.00049298,10.892 L5.00049298,6.5 L4.50049298,6.5 C4.22449298,6.5 4.00049298,6.276 4.00049298,6 L4.00049298,5.5 L3.08749298,5.5 C2.81149298,5.5 2.58749298,5.276 2.58749298,5 C2.58749298,4.724 2.81149298,4.5 3.08749298,4.5 L4.00149298,4.5 L4.00149298,3.5 L3.08749298,3.5 C2.81149298,3.5 2.58749298,3.276 2.58749298,3 C2.58749298,2.724 2.81149298,2.5 3.08749298,2.5 L4.00149298,2.5 C4.00149298,2.309 4.10749298,2.138 4.27749298,2.053 L8.27749298,0.053 C8.34749298,0.018 8.42449298,0 8.50149298,0 C8.59449298,0 8.68549298,0.026 8.76449298,0.075 C8.91249298,0.166 9.00149298,0.325 9.00149298,0.5 L9.00149298,2.5 L9.91549298,2.5 C10.191493,2.5 10.415493,2.724 10.415493,3 C10.415493,3.276 10.191493,3.5 9.91549298,3.5 L9.00149298,3.5 L9.00149298,4.5 L9.91549298,4.5 C10.191493,4.5 10.415493,4.724 10.415493,5 C10.415493,5.276 10.191493,5.5 9.91549298,5.5 L9.00149298,5.5 L9.00149298,6 C9.00149298,6.276 8.77749298,6.5 8.50149298,6.5 L8.00149298,6.5 L8.00149298,10.893 L12.846493,21.688 C13.038493,22.087 13.053493,22.56 12.885493,22.981 C12.637493,23.6 12.045493,24 11.377493,24 Z M6.50149298,21 C6.56949298,21 6.63549298,21.013 6.69849298,21.04 L11.160493,22.96 C11.226493,22.986 11.301493,23.001 11.378493,23.001 C11.630493,23.001 11.863493,22.844 11.957493,22.609 C12.021493,22.448 12.015493,22.265 11.940493,22.109 L8.00249298,13.335 L8.00249298,18 C8.00249298,18.552 7.55349298,19 7.00249298,19 L6.00249298,19 C5.45149298,19 5.00249298,18.552 5.00249298,18 L5.00249298,13.335 L1.06949298,22.097 C0.991492982,22.259 0.981492982,22.425 1.03749298,22.584 C1.09249298,22.741 1.20549298,22.867 1.35449298,22.939 C1.43749298,22.979 1.53049298,23 1.62349298,23 C1.70349298,23 1.78049298,22.985 1.85349298,22.956 L6.30249298,21.041 C6.36749298,21.013 6.43349298,21 6.50149298,21 Z M5.50149298,5.5 C5.77749298,5.5 6.00149298,5.724 6.00149298,6 L6.00149298,18 L7.00149298,18 L7.00149298,6 C7.00149298,5.724 7.22549298,5.5 7.50149298,5.5 L8.00149298,5.5 L8.00149298,1.309 L5.00149298,2.809 L5.00149298,5.5 L5.50149298,5.5 Z M14.501493,24 C14.225493,24 14.001493,23.776 14.001493,23.5 C14.001493,23.224 14.225493,23 14.501493,23 L21.501493,23 C22.328493,23 23.001493,22.327 23.001493,21.5 L23.001493,11 L10.001493,11 C9.72549298,11 9.50149298,10.776 9.50149298,10.5 C9.50149298,10.224 9.72549298,10 10.001493,10 L23.001493,10 L23.001493,9.5 C23.001493,8.673 22.328493,8 21.501493,8 L9.50149298,8 C9.22549298,8 9.00149298,7.776 9.00149298,7.5 C9.00149298,7.224 9.22549298,7 9.50149298,7 L13.001493,7 L13.001493,6.5 C13.001493,6.224 13.225493,6 13.501493,6 C13.777493,6 14.001493,6.224 14.001493,6.5 L14.001493,7 L16.001493,7 L16.001493,6.5 C16.001493,6.224 16.225493,6 16.501493,6 C16.777493,6 17.001493,6.224 17.001493,6.5 L17.001493,7 L18.001493,7 L18.001493,6.5 C18.001493,6.224 18.225493,6 18.501493,6 C18.777493,6 19.001493,6.224 19.001493,6.5 L19.001493,7 L21.501493,7 C22.879493,7 24.001493,8.121 24.001493,9.5 L24.001493,21.5 C24.001493,22.878 22.879493,24 21.501493,24 L14.501493,24 Z M16.510493,22.003 C16.135493,22.003 15.757493,21.96 15.387493,21.876 C14.977493,21.783 14.579493,21.637 14.205493,21.444 C13.960493,21.317 13.864493,21.015 13.990493,20.77 C14.076493,20.603 14.246493,20.499 14.435493,20.499 C14.514493,20.499 14.593493,20.518 14.664493,20.554 C14.964493,20.709 15.282493,20.825 15.610493,20.9 C15.906493,20.968 16.209493,21.002 16.509493,21.002 C17.256493,21.002 17.988493,20.79 18.629493,20.388 C19.534493,19.82 20.163493,18.933 20.401493,17.892 C20.892493,15.742 19.542493,13.593 17.392493,13.101 C17.099493,13.034 16.798493,13 16.500493,13 C14.653493,13 13.013493,14.308 12.601493,16.11 C12.550493,16.335 12.346493,16.499 12.115493,16.499 C12.076493,16.499 12.038493,16.494 12.000493,16.485 C11.734493,16.424 11.565493,16.156 11.626493,15.887 C12.141493,13.635 14.190493,12 16.500493,12 C16.873493,12 17.248493,12.042 17.615493,12.126 C20.303493,12.74 21.990493,15.426 21.376493,18.114 C21.079493,19.416 20.292493,20.524 19.161493,21.235 C18.360493,21.738 17.444493,22.003 16.510493,22.003 Z M16.501493,19 C15.398493,19 14.501493,18.103 14.501493,17 C14.501493,15.897 15.398493,15 16.501493,15 C17.604493,15 18.501493,15.897 18.501493,17 C18.501493,18.103 17.604493,19 16.501493,19 Z M16.501493,16 C15.949493,16 15.501493,16.448 15.501493,17 C15.501493,17.552 15.949493,18 16.501493,18 C17.053493,18 17.501493,17.552 17.501493,17 C17.501493,16.448 17.052493,16 16.501493,16 Z"/>
  </g>
</svg>
