<svg xmlns="http://www.w3.org/2000/svg" viewBox="0 0 24 24">
  <g fill="none" fill-rule="evenodd">
    <rect width="24" height="24"/>
    <path fill="currentColor" d="M19.6839924,15.5 C19.5939924,15.5 19.5049924,15.475 19.4269924,15.429 C19.3119924,15.36 19.2319924,15.251 19.1989924,15.121 C19.1669924,14.992 19.1869924,14.857 19.2549924,14.743 C20.0859924,13.36 20.0859924,11.641 19.2549924,10.258 C19.1129924,10.022 19.1899924,9.714 19.4259924,9.572 C19.5039924,9.525 19.5929924,9.501 19.6829924,9.501 C19.8579924,9.501 20.0219924,9.594 20.1119924,9.744 C21.1329924,11.445 21.1329924,13.558 20.1119924,15.258 C20.0229924,15.407 19.8579924,15.5 19.6839924,15.5 Z M22.3919924,17 C22.3019924,17 22.2129924,16.975 22.1349924,16.929 C21.8989924,16.787 21.8219924,16.48 21.9639924,16.243 C23.3489924,13.934 23.3489924,11.066 21.9639924,8.758 C21.8219924,8.522 21.8989924,8.214 22.1349924,8.072 C22.2129924,8.025 22.3019924,8.001 22.3919924,8.001 C22.5669924,8.001 22.7309924,8.094 22.8209924,8.244 C24.3959924,10.87 24.3959924,14.133 22.8209924,16.759 C22.7309924,16.907 22.5659924,17 22.3919924,17 Z M5.37499237,23.507 C2.60999237,23.507 0.300992375,21.433 0.0029923746,18.682 C-0.0270076254,18.408 0.171992375,18.161 0.445992375,18.131 C0.463992375,18.129 0.481992375,18.128 0.500992375,18.128 C0.755992375,18.128 0.968992375,18.32 0.996992375,18.575 C1.23999237,20.817 3.12299237,22.507 5.37699237,22.507 C5.53499237,22.507 5.69499237,22.498 5.85299237,22.481 C7.99299237,22.249 9.64299237,20.522 9.77699237,18.373 L9.78199237,18.291 C9.85599237,16.55 10.8529924,14.941 12.3849924,14.095 C14.5709924,12.872 15.9399924,10.554 15.9559924,8.047 C15.9449924,4.417 13.2109924,1.399 9.59699237,1.029 C9.38499237,1.009 9.16699237,0.999 8.95299237,0.999 C6.41499237,0.999 4.07199237,2.376 2.83699237,4.593 C2.74899237,4.752 2.58099237,4.85 2.39999237,4.85 C2.31499237,4.85 2.23099237,4.828 2.15699237,4.787 C2.04099237,4.722 1.95599237,4.616 1.91999237,4.487 C1.88399237,4.358 1.89899237,4.223 1.96399237,4.107 C3.37399237,1.573 6.05199237,1.77635684e-15 8.95099237,1.77635684e-15 C9.19799237,1.77635684e-15 9.44799237,0.012 9.69399237,0.035 C13.8219924,0.458 16.9429924,3.903 16.9559924,8.049 C16.9379924,10.919 15.3729924,13.57 12.8709924,14.97 C11.6409924,15.649 10.8399924,16.941 10.7799924,18.343 L10.7749924,18.435 C10.6109924,21.072 8.58599237,23.192 5.96099237,23.476 C5.76599237,23.496 5.56899237,23.507 5.37499237,23.507 Z M5.62699237,16.533 C3.42099237,16.533 1.62699237,14.739 1.62699237,12.533 C1.62699237,10.884 2.62999237,9.422 4.14899237,8.818 C4.01899237,8.395 3.95399237,7.964 3.95499237,7.532 C3.96599237,5.071 5.97699237,3.069 8.43699237,3.069 C10.2339924,3.069 11.7419924,4.045 12.5939924,5.747 C13.6699924,7.898 13.4359924,10.619 12.0119924,12.519 L11.0279924,13.831 C10.9339924,13.956 10.7849924,14.031 10.6279924,14.031 C10.5189924,14.031 10.4149924,13.996 10.3279924,13.931 C10.1079924,13.765 10.0629924,13.452 10.2279924,13.231 L11.2119924,11.92 C12.4139924,10.316 12.6099924,8.016 11.6999924,6.196 C11.0249924,4.846 9.83599237,4.071 8.43899237,4.071 C7.29099237,4.071 6.24399237,4.625 5.59699237,5.547 C5.80299237,5.515 6.01199237,5.5 6.21999237,5.5 C6.79099237,5.5 7.35099237,5.611 7.88499237,5.829 C8.97599237,6.276 9.82799237,7.121 10.2829924,8.209 C10.5099924,8.751 10.6249924,9.323 10.6259924,9.911 C10.6289924,10.949 10.2709924,11.962 9.61499237,12.772 C9.48999237,14.888 7.75399237,16.533 5.62699237,16.533 Z M5.62699237,9.533 C3.97299237,9.533 2.62699237,10.879 2.62699237,12.533 C2.62699237,14.187 3.97299237,15.533 5.62699237,15.533 C7.28099237,15.533 8.62699237,14.187 8.62699237,12.533 C8.62699237,10.879 7.28099237,9.533 5.62699237,9.533 Z M5.62699237,8.533 C7.34399237,8.533 8.83299237,9.615 9.39099237,11.187 C9.54699237,10.781 9.62699237,10.349 9.62599237,9.912 C9.62599237,9.457 9.53699237,9.014 9.36099237,8.595 C9.00899237,7.754 8.34999237,7.101 7.50599237,6.755 C7.09199237,6.585 6.65799237,6.499 6.21699237,6.499 C5.82399237,6.499 5.43699237,6.567 5.06299237,6.702 C4.99199237,6.979 4.95599237,7.259 4.95499237,7.535 C4.95399237,7.882 5.00899237,8.228 5.11799237,8.568 C5.29199237,8.544 5.45999237,8.533 5.62699237,8.533 Z"/>
  </g>
</svg>
