<?xml version="1.0" standalone="no"?>
<!DOCTYPE svg PUBLIC "-//W3C//DTD SVG 20010904//EN"
 "http://www.w3.org/TR/2001/REC-SVG-20010904/DTD/svg10.dtd">
<svg version="1.0" xmlns="http://www.w3.org/2000/svg"
 width="700.000000pt" height="700.000000pt" viewBox="0 0 700.000000 700.000000"
 preserveAspectRatio="xMidYMid meet">
<metadata>
Created by potrace 1.11, written by Peter Selinger 2001-2013
</metadata>
<g transform="translate(0.000000,700.000000) scale(0.100000,-0.100000)"
fill="#000000" stroke="none">
<path d="M3279 6996 c-2 -2 -47 -6 -99 -10 -138 -9 -356 -43 -505 -77 -71 -16
-140 -32 -152 -34 -41 -9 -237 -73 -318 -103 -265 -100 -504 -223 -720 -371
-555 -379 -976 -903 -1226 -1528 -28 -70 -55 -139 -59 -153 -30 -93 -62 -197
-65 -210 -2 -8 -10 -40 -18 -70 -8 -30 -21 -82 -28 -115 -7 -33 -14 -64 -15
-70 -8 -35 -34 -198 -39 -240 -3 -27 -8 -60 -10 -73 -26 -154 -27 -721 -1
-882 3 -14 7 -47 11 -75 22 -186 92 -489 155 -675 168 -498 445 -945 810
-1310 367 -366 803 -636 1303 -806 195 -66 498 -138 677 -159 25 -3 61 -7 80
-10 196 -26 783 -26 880 0 8 2 40 6 70 10 61 6 151 20 220 35 25 5 57 12 72
14 121 20 457 125 624 196 126 54 313 147 399 199 37 23 69 41 71 41 11 0 239
161 323 228 452 360 816 852 1024 1382 47 121 121 343 138 420 6 25 12 52 15
60 2 8 14 67 28 131 23 109 27 138 42 249 3 25 7 56 9 69 26 161 26 744 0 879
-2 11 -6 45 -9 74 -6 53 -8 64 -26 168 -6 30 -13 69 -16 85 -2 17 -22 98 -44
180 -295 1142 -1123 2023 -2235 2378 -116 37 -204 63 -245 71 -14 3 -34 7 -45
10 -44 11 -223 45 -270 52 -27 3 -58 8 -67 9 -9 2 -48 7 -85 11 -37 3 -79 8
-93 10 -33 6 -556 15 -561 10z m526 -569 c17 -3 57 -8 90 -11 33 -4 71 -9 85
-11 14 -3 39 -7 55 -10 17 -2 41 -6 55 -9 14 -3 50 -11 80 -17 199 -40 498
-142 676 -232 743 -375 1264 -1031 1464 -1849 16 -64 31 -131 34 -150 3 -18 8
-44 11 -58 15 -76 36 -246 42 -350 12 -194 6 -497 -13 -616 -3 -17 -6 -46 -8
-65 -14 -130 -63 -350 -112 -509 -303 -971 -1058 -1673 -2045 -1899 -128 -29
-158 -35 -254 -47 -22 -3 -51 -7 -65 -9 -144 -26 -648 -26 -800 -1 -14 3 -45
7 -70 10 -58 8 -88 13 -180 33 -132 27 -144 30 -230 57 -47 15 -94 28 -105 31
-12 3 -77 27 -146 54 -718 282 -1274 837 -1553 1552 -27 68 -52 133 -57 144
-22 54 -94 332 -105 402 -3 21 -7 45 -10 53 -9 32 -33 239 -40 345 -17 253 -8
485 32 765 16 114 79 374 122 500 240 702 704 1249 1344 1580 244 126 558 234
800 275 18 3 40 8 48 10 8 2 38 6 65 10 28 3 66 7 85 10 19 2 71 7 115 11 44
3 81 8 83 9 5 5 474 -3 507 -8z"/>
<path d="M2694 5601 c1 -115 3 -211 6 -214 3 -2 44 -7 91 -10 136 -9 178 -44
196 -167 5 -30 8 -868 8 -1862 l-1 -1808 21 -1 c11 -1 237 -2 502 -2 314 -1
484 1 486 8 7 20 0 3961 -7 4000 -4 22 -21 69 -39 105 -24 50 -43 72 -79 97
-90 59 -130 63 -686 63 l-499 0 1 -209z"/>
<path d="M1887 4954 c-1 -1 -25 -5 -53 -8 -148 -15 -245 -103 -275 -247 -8
-39 -12 -497 -13 -1602 -1 -1371 1 -1550 14 -1556 8 -4 233 -6 500 -6 l485 1
3 1710 2 1710 -331 0 c-181 0 -331 -1 -332 -2z"/>
<path d="M4454 4951 c-2 -2 -4 -771 -4 -1708 l0 -1703 23 -1 c163 -7 970 -2
976 6 4 6 7 705 6 1555 -1 1243 -4 1556 -14 1600 -26 106 -73 170 -156 212
-71 36 -134 42 -483 43 -189 0 -345 -1 -348 -4z"/>
</g>
</svg>
